<?xml version="1.0" standalone="no"?>
<!DOCTYPE svg PUBLIC "-//W3C//DTD SVG 20010904//EN"
 "http://www.w3.org/TR/2001/REC-SVG-20010904/DTD/svg10.dtd">
<svg version="1.0" xmlns="http://www.w3.org/2000/svg"
 width="108.000000pt" height="106.000000pt" viewBox="0 0 108.000000 106.000000"
 preserveAspectRatio="xMidYMid meet">

<g transform="translate(0.000000,106.000000) scale(0.100000,-0.100000)"
fill="#000000" stroke="none">
<path d="M127 619 c-20 -17 -37 -35 -37 -42 0 -6 12 1 28 15 21 21 31 25 45
16 25 -14 32 -4 15 21 -14 20 -15 20 -51 -10z"/>
<path d="M980 456 c-38 -42 -46 -54 -25 -40 25 17 35 19 60 11 17 -5 36 -14
43 -20 11 -9 12 -3 6 29 -3 21 -12 48 -18 60 -10 20 -14 18 -66 -40z"/>
<path d="M509 224 c-13 -14 -36 -33 -51 -42 l-26 -15 30 -38 c41 -51 59 -57
48 -17 -7 22 -4 43 10 81 11 28 18 52 16 54 -1 2 -13 -9 -27 -23z"/>
</g>
</svg>
